<svg width="160" height="177" viewBox="0 0 160 177" fill="none" xmlns="http://www.w3.org/2000/svg">
<g clip-path="url(#clip0_1_929)">
<path d="M160 3.05176e-05H0V160H160V3.05176e-05Z" fill="white"/>
<path d="M14.8275 10.0001H9.99991V14.8277H14.8275V10.0001Z" fill="black" fill-opacity="0.88"/>
<path d="M19.6551 10.0001H14.8275V14.8277H19.6551V10.0001Z" fill="black" fill-opacity="0.88"/>
<path d="M24.4827 10.0001H19.6551V14.8277H24.4827V10.0001Z" fill="black" fill-opacity="0.88"/>
<path d="M29.3103 10.0001H24.4827V14.8277H29.3103V10.0001Z" fill="black" fill-opacity="0.88"/>
<path d="M34.1378 10.0001H29.3103V14.8277H34.1378V10.0001Z" fill="black" fill-opacity="0.88"/>
<path d="M38.9654 10.0001H34.1378V14.8277H38.9654V10.0001Z" fill="black" fill-opacity="0.88"/>
<path d="M43.793 10.0001H38.9654V14.8277H43.793V10.0001Z" fill="black" fill-opacity="0.88"/>
<path d="M53.4482 10.0001H48.6206V14.8277H53.4482V10.0001Z" fill="black" fill-opacity="0.88"/>
<path d="M63.1034 10.0001H58.2758V14.8277H63.1034V10.0001Z" fill="black" fill-opacity="0.88"/>
<path d="M72.7585 10.0001H67.9309V14.8277H72.7585V10.0001Z" fill="black" fill-opacity="0.88"/>
<path d="M87.2413 10.0001H82.4137V14.8277H87.2413V10.0001Z" fill="black" fill-opacity="0.88"/>
<path d="M92.0689 10.0001H87.2413V14.8277H92.0689V10.0001Z" fill="black" fill-opacity="0.88"/>
<path d="M96.8965 10.0001H92.0689V14.8277H96.8965V10.0001Z" fill="black" fill-opacity="0.88"/>
<path d="M101.724 10.0001H96.8965V14.8277H101.724V10.0001Z" fill="black" fill-opacity="0.88"/>
<path d="M106.552 10.0001H101.724V14.8277H106.552V10.0001Z" fill="black" fill-opacity="0.88"/>
<path d="M111.379 10.0001H106.552V14.8277H111.379V10.0001Z" fill="black" fill-opacity="0.88"/>
<path d="M121.034 10.0001H116.207V14.8277H121.034V10.0001Z" fill="black" fill-opacity="0.88"/>
<path d="M125.862 10.0001H121.034V14.8277H125.862V10.0001Z" fill="black" fill-opacity="0.88"/>
<path d="M130.69 10.0001H125.862V14.8277H130.69V10.0001Z" fill="black" fill-opacity="0.88"/>
<path d="M135.517 10.0001H130.69V14.8277H135.517V10.0001Z" fill="black" fill-opacity="0.88"/>
<path d="M140.345 10.0001H135.517V14.8277H140.345V10.0001Z" fill="black" fill-opacity="0.88"/>
<path d="M145.172 10.0001H140.345V14.8277H145.172V10.0001Z" fill="black" fill-opacity="0.88"/>
<path d="M150 10.0001H145.172V14.8277H150V10.0001Z" fill="black" fill-opacity="0.88"/>
<path d="M14.8275 14.8277H9.99991V19.6553H14.8275V14.8277Z" fill="black" fill-opacity="0.88"/>
<path d="M43.793 14.8277H38.9654V19.6553H43.793V14.8277Z" fill="black" fill-opacity="0.88"/>
<path d="M58.2758 14.8277H53.4482V19.6553H58.2758V14.8277Z" fill="black" fill-opacity="0.88"/>
<path d="M67.9309 14.8277H63.1034V19.6553H67.9309V14.8277Z" fill="black" fill-opacity="0.88"/>
<path d="M72.7585 14.8277H67.9309V19.6553H72.7585V14.8277Z" fill="black" fill-opacity="0.88"/>
<path d="M82.4137 14.8277H77.5861V19.6553H82.4137V14.8277Z" fill="black" fill-opacity="0.88"/>
<path d="M96.8965 14.8277H92.0689V19.6553H96.8965V14.8277Z" fill="black" fill-opacity="0.88"/>
<path d="M101.724 14.8277H96.8965V19.6553H101.724V14.8277Z" fill="black" fill-opacity="0.88"/>
<path d="M106.552 14.8277H101.724V19.6553H106.552V14.8277Z" fill="black" fill-opacity="0.88"/>
<path d="M111.379 14.8277H106.552V19.6553H111.379V14.8277Z" fill="black" fill-opacity="0.88"/>
<path d="M121.034 14.8277H116.207V19.6553H121.034V14.8277Z" fill="black" fill-opacity="0.88"/>
<path d="M150 14.8277H145.172V19.6553H150V14.8277Z" fill="black" fill-opacity="0.88"/>
<path d="M14.8275 19.6553H9.99991V24.4829H14.8275V19.6553Z" fill="black" fill-opacity="0.88"/>
<path d="M24.4827 19.6553H19.6551V24.4829H24.4827V19.6553Z" fill="black" fill-opacity="0.88"/>
<path d="M29.3103 19.6553H24.4827V24.4829H29.3103V19.6553Z" fill="black" fill-opacity="0.88"/>
<path d="M34.1378 19.6553H29.3103V24.4829H34.1378V19.6553Z" fill="black" fill-opacity="0.88"/>
<path d="M43.793 19.6553H38.9654V24.4829H43.793V19.6553Z" fill="black" fill-opacity="0.88"/>
<path d="M58.2758 19.6553H53.4482V24.4829H58.2758V19.6553Z" fill="black" fill-opacity="0.88"/>
<path d="M72.7585 19.6553H67.9309V24.4829H72.7585V19.6553Z" fill="black" fill-opacity="0.88"/>
<path d="M77.5861 19.6553H72.7585V24.4829H77.5861V19.6553Z" fill="black" fill-opacity="0.88"/>
<path d="M87.2413 19.6553H82.4137V24.4829H87.2413V19.6553Z" fill="black" fill-opacity="0.88"/>
<path d="M92.0689 19.6553H87.2413V24.4829H92.0689V19.6553Z" fill="black" fill-opacity="0.88"/>
<path d="M101.724 19.6553H96.8965V24.4829H101.724V19.6553Z" fill="black" fill-opacity="0.88"/>
<path d="M111.379 19.6553H106.552V24.4829H111.379V19.6553Z" fill="black" fill-opacity="0.88"/>
<path d="M121.034 19.6553H116.207V24.4829H121.034V19.6553Z" fill="black" fill-opacity="0.88"/>
<path d="M130.69 19.6553H125.862V24.4829H130.69V19.6553Z" fill="black" fill-opacity="0.88"/>
<path d="M135.517 19.6553H130.69V24.4829H135.517V19.6553Z" fill="black" fill-opacity="0.88"/>
<path d="M140.345 19.6553H135.517V24.4829H140.345V19.6553Z" fill="black" fill-opacity="0.88"/>
<path d="M150 19.6553H145.172V24.4829H150V19.6553Z" fill="black" fill-opacity="0.88"/>
<path d="M14.8275 24.4829H9.99991V29.3105H14.8275V24.4829Z" fill="black" fill-opacity="0.88"/>
<path d="M24.4827 24.4829H19.6551V29.3105H24.4827V24.4829Z" fill="black" fill-opacity="0.88"/>
<path d="M29.3103 24.4829H24.4827V29.3105H29.3103V24.4829Z" fill="black" fill-opacity="0.88"/>
<path d="M34.1378 24.4829H29.3103V29.3105H34.1378V24.4829Z" fill="black" fill-opacity="0.88"/>
<path d="M43.793 24.4829H38.9654V29.3105H43.793V24.4829Z" fill="black" fill-opacity="0.88"/>
<path d="M53.4482 24.4829H48.6206V29.3105H53.4482V24.4829Z" fill="black" fill-opacity="0.88"/>
<path d="M58.2758 24.4829H53.4482V29.3105H58.2758V24.4829Z" fill="black" fill-opacity="0.88"/>
<path d="M67.9309 24.4829H63.1034V29.3105H67.9309V24.4829Z" fill="black" fill-opacity="0.88"/>
<path d="M72.7585 24.4829H67.9309V29.3105H72.7585V24.4829Z" fill="black" fill-opacity="0.88"/>
<path d="M77.5861 24.4829H72.7585V29.3105H77.5861V24.4829Z" fill="black" fill-opacity="0.88"/>
<path d="M92.0689 24.4829H87.2413V29.3105H92.0689V24.4829Z" fill="black" fill-opacity="0.88"/>
<path d="M96.8965 24.4829H92.0689V29.3105H96.8965V24.4829Z" fill="black" fill-opacity="0.88"/>
<path d="M101.724 24.4829H96.8965V29.3105H101.724V24.4829Z" fill="black" fill-opacity="0.88"/>
<path d="M106.552 24.4829H101.724V29.3105H106.552V24.4829Z" fill="black" fill-opacity="0.88"/>
<path d="M121.034 24.4829H116.207V29.3105H121.034V24.4829Z" fill="black" fill-opacity="0.88"/>
<path d="M130.69 24.4829H125.862V29.3105H130.69V24.4829Z" fill="black" fill-opacity="0.88"/>
<path d="M135.517 24.4829H130.69V29.3105H135.517V24.4829Z" fill="black" fill-opacity="0.88"/>
<path d="M140.345 24.4829H135.517V29.3105H140.345V24.4829Z" fill="black" fill-opacity="0.88"/>
<path d="M150 24.4829H145.172V29.3105H150V24.4829Z" fill="black" fill-opacity="0.88"/>
<path d="M14.8275 29.3105H9.99991V34.1381H14.8275V29.3105Z" fill="black" fill-opacity="0.88"/>
<path d="M24.4827 29.3105H19.6551V34.1381H24.4827V29.3105Z" fill="black" fill-opacity="0.88"/>
<path d="M29.3103 29.3105H24.4827V34.1381H29.3103V29.3105Z" fill="black" fill-opacity="0.88"/>
<path d="M34.1378 29.3105H29.3103V34.1381H34.1378V29.3105Z" fill="black" fill-opacity="0.88"/>
<path d="M43.793 29.3105H38.9654V34.1381H43.793V29.3105Z" fill="black" fill-opacity="0.88"/>
<path d="M53.4482 29.3105H48.6206V34.1381H53.4482V29.3105Z" fill="black" fill-opacity="0.88"/>
<path d="M58.2758 29.3105H53.4482V34.1381H58.2758V29.3105Z" fill="black" fill-opacity="0.88"/>
<path d="M63.1034 29.3105H58.2758V34.1381H63.1034V29.3105Z" fill="black" fill-opacity="0.88"/>
<path d="M72.7585 29.3105H67.9309V34.1381H72.7585V29.3105Z" fill="black" fill-opacity="0.88"/>
<path d="M87.2413 29.3105H82.4137V34.1381H87.2413V29.3105Z" fill="black" fill-opacity="0.88"/>
<path d="M96.8965 29.3105H92.0689V34.1381H96.8965V29.3105Z" fill="black" fill-opacity="0.88"/>
<path d="M101.724 29.3105H96.8965V34.1381H101.724V29.3105Z" fill="black" fill-opacity="0.88"/>
<path d="M111.379 29.3105H106.552V34.1381H111.379V29.3105Z" fill="black" fill-opacity="0.88"/>
<path d="M121.034 29.3105H116.207V34.1381H121.034V29.3105Z" fill="black" fill-opacity="0.88"/>
<path d="M130.69 29.3105H125.862V34.1381H130.69V29.3105Z" fill="black" fill-opacity="0.88"/>
<path d="M135.517 29.3105H130.69V34.1381H135.517V29.3105Z" fill="black" fill-opacity="0.88"/>
<path d="M140.345 29.3105H135.517V34.1381H140.345V29.3105Z" fill="black" fill-opacity="0.88"/>
<path d="M150 29.3105H145.172V34.1381H150V29.3105Z" fill="black" fill-opacity="0.88"/>
<path d="M14.8275 34.1381H9.99991V38.9656H14.8275V34.1381Z" fill="black" fill-opacity="0.88"/>
<path d="M43.793 34.1381H38.9654V38.9656H43.793V34.1381Z" fill="black" fill-opacity="0.88"/>
<path d="M53.4482 34.1381H48.6206V38.9656H53.4482V34.1381Z" fill="black" fill-opacity="0.88"/>
<path d="M63.1034 34.1381H58.2758V38.9656H63.1034V34.1381Z" fill="black" fill-opacity="0.88"/>
<path d="M67.9309 34.1381H63.1034V38.9656H67.9309V34.1381Z" fill="black" fill-opacity="0.88"/>
<path d="M87.2413 34.1381H82.4137V38.9656H87.2413V34.1381Z" fill="black" fill-opacity="0.88"/>
<path d="M92.0689 34.1381H87.2413V38.9656H92.0689V34.1381Z" fill="black" fill-opacity="0.88"/>
<path d="M106.552 34.1381H101.724V38.9656H106.552V34.1381Z" fill="black" fill-opacity="0.88"/>
<path d="M121.034 34.1381H116.207V38.9656H121.034V34.1381Z" fill="black" fill-opacity="0.88"/>
<path d="M150 34.1381H145.172V38.9656H150V34.1381Z" fill="black" fill-opacity="0.88"/>
<path d="M14.8275 38.9656H9.99991V43.7932H14.8275V38.9656Z" fill="black" fill-opacity="0.88"/>
<path d="M19.6551 38.9656H14.8275V43.7932H19.6551V38.9656Z" fill="black" fill-opacity="0.88"/>
<path d="M24.4827 38.9656H19.6551V43.7932H24.4827V38.9656Z" fill="black" fill-opacity="0.88"/>
<path d="M29.3103 38.9656H24.4827V43.7932H29.3103V38.9656Z" fill="black" fill-opacity="0.88"/>
<path d="M34.1378 38.9656H29.3103V43.7932H34.1378V38.9656Z" fill="black" fill-opacity="0.88"/>
<path d="M38.9654 38.9656H34.1378V43.7932H38.9654V38.9656Z" fill="black" fill-opacity="0.88"/>
<path d="M43.793 38.9656H38.9654V43.7932H43.793V38.9656Z" fill="black" fill-opacity="0.88"/>
<path d="M53.4482 38.9656H48.6206V43.7932H53.4482V38.9656Z" fill="black" fill-opacity="0.88"/>
<path d="M63.1034 38.9656H58.2758V43.7932H63.1034V38.9656Z" fill="black" fill-opacity="0.88"/>
<path d="M72.7585 38.9656H67.9309V43.7932H72.7585V38.9656Z" fill="black" fill-opacity="0.88"/>
<path d="M82.4137 38.9656H77.5861V43.7932H82.4137V38.9656Z" fill="black" fill-opacity="0.88"/>
<path d="M92.0689 38.9656H87.2413V43.7932H92.0689V38.9656Z" fill="black" fill-opacity="0.88"/>
<path d="M101.724 38.9656H96.8965V43.7932H101.724V38.9656Z" fill="black" fill-opacity="0.88"/>
<path d="M111.379 38.9656H106.552V43.7932H111.379V38.9656Z" fill="black" fill-opacity="0.88"/>
<path d="M121.034 38.9656H116.207V43.7932H121.034V38.9656Z" fill="black" fill-opacity="0.88"/>
<path d="M125.862 38.9656H121.034V43.7932H125.862V38.9656Z" fill="black" fill-opacity="0.88"/>
<path d="M130.69 38.9656H125.862V43.7932H130.69V38.9656Z" fill="black" fill-opacity="0.88"/>
<path d="M135.517 38.9656H130.69V43.7932H135.517V38.9656Z" fill="black" fill-opacity="0.88"/>
<path d="M140.345 38.9656H135.517V43.7932H140.345V38.9656Z" fill="black" fill-opacity="0.88"/>
<path d="M145.172 38.9656H140.345V43.7932H145.172V38.9656Z" fill="black" fill-opacity="0.88"/>
<path d="M150 38.9656H145.172V43.7932H150V38.9656Z" fill="black" fill-opacity="0.88"/>
<path d="M53.4482 43.7932H48.6206V48.6208H53.4482V43.7932Z" fill="black" fill-opacity="0.88"/>
<path d="M58.2758 43.7932H53.4482V48.6208H58.2758V43.7932Z" fill="black" fill-opacity="0.88"/>
<path d="M77.5861 43.7932H72.7585V48.6208H77.5861V43.7932Z" fill="black" fill-opacity="0.88"/>
<path d="M106.552 43.7932H101.724V48.6208H106.552V43.7932Z" fill="black" fill-opacity="0.88"/>
<path d="M14.8275 48.6208H9.99991V53.4484H14.8275V48.6208Z" fill="black" fill-opacity="0.88"/>
<path d="M19.6551 48.6208H14.8275V53.4484H19.6551V48.6208Z" fill="black" fill-opacity="0.88"/>
<path d="M24.4827 48.6208H19.6551V53.4484H24.4827V48.6208Z" fill="black" fill-opacity="0.88"/>
<path d="M34.1378 48.6208H29.3103V53.4484H34.1378V48.6208Z" fill="black" fill-opacity="0.88"/>
<path d="M43.793 48.6208H38.9654V53.4484H43.793V48.6208Z" fill="black" fill-opacity="0.88"/>
<path d="M53.4482 48.6208H48.6206V53.4484H53.4482V48.6208Z" fill="black" fill-opacity="0.88"/>
<path d="M72.7585 48.6208H67.9309V53.4484H72.7585V48.6208Z" fill="black" fill-opacity="0.88"/>
<path d="M101.724 48.6208H96.8965V53.4484H101.724V48.6208Z" fill="black" fill-opacity="0.88"/>
<path d="M116.207 48.6208H111.379V53.4484H116.207V48.6208Z" fill="black" fill-opacity="0.88"/>
<path d="M121.034 48.6208H116.207V53.4484H121.034V48.6208Z" fill="black" fill-opacity="0.88"/>
<path d="M125.862 48.6208H121.034V53.4484H125.862V48.6208Z" fill="black" fill-opacity="0.88"/>
<path d="M130.69 48.6208H125.862V53.4484H130.69V48.6208Z" fill="black" fill-opacity="0.88"/>
<path d="M135.517 48.6208H130.69V53.4484H135.517V48.6208Z" fill="black" fill-opacity="0.88"/>
<path d="M150 48.6208H145.172V53.4484H150V48.6208Z" fill="black" fill-opacity="0.88"/>
<path d="M19.6551 53.4484H14.8275V58.276H19.6551V53.4484Z" fill="black" fill-opacity="0.88"/>
<path d="M29.3103 53.4484H24.4827V58.276H29.3103V53.4484Z" fill="black" fill-opacity="0.88"/>
<path d="M48.6206 53.4484H43.793V58.276H48.6206V53.4484Z" fill="black" fill-opacity="0.88"/>
<path d="M53.4482 53.4484H48.6206V58.276H53.4482V53.4484Z" fill="black" fill-opacity="0.88"/>
<path d="M72.7585 53.4484H67.9309V58.276H72.7585V53.4484Z" fill="black" fill-opacity="0.88"/>
<path d="M77.5861 53.4484H72.7585V58.276H77.5861V53.4484Z" fill="black" fill-opacity="0.88"/>
<path d="M92.0689 53.4484H87.2413V58.276H92.0689V53.4484Z" fill="black" fill-opacity="0.88"/>
<path d="M96.8965 53.4484H92.0689V58.276H96.8965V53.4484Z" fill="black" fill-opacity="0.88"/>
<path d="M111.379 53.4484H106.552V58.276H111.379V53.4484Z" fill="black" fill-opacity="0.88"/>
<path d="M145.172 53.4484H140.345V58.276H145.172V53.4484Z" fill="black" fill-opacity="0.88"/>
<path d="M150 53.4484H145.172V58.276H150V53.4484Z" fill="black" fill-opacity="0.88"/>
<path d="M34.1378 58.276H29.3103V63.1036H34.1378V58.276Z" fill="black" fill-opacity="0.88"/>
<path d="M38.9654 58.276H34.1378V63.1036H38.9654V58.276Z" fill="black" fill-opacity="0.88"/>
<path d="M43.793 58.276H38.9654V63.1036H43.793V58.276Z" fill="black" fill-opacity="0.88"/>
<path d="M48.6206 58.276H43.793V63.1036H48.6206V58.276Z" fill="black" fill-opacity="0.88"/>
<path d="M53.4482 58.276H48.6206V63.1036H53.4482V58.276Z" fill="black" fill-opacity="0.88"/>
<path d="M67.9309 58.276H63.1034V63.1036H67.9309V58.276Z" fill="black" fill-opacity="0.88"/>
<path d="M72.7585 58.276H67.9309V63.1036H72.7585V58.276Z" fill="black" fill-opacity="0.88"/>
<path d="M77.5861 58.276H72.7585V63.1036H77.5861V58.276Z" fill="black" fill-opacity="0.88"/>
<path d="M82.4137 58.276H77.5861V63.1036H82.4137V58.276Z" fill="black" fill-opacity="0.88"/>
<path d="M92.0689 58.276H87.2413V63.1036H92.0689V58.276Z" fill="black" fill-opacity="0.88"/>
<path d="M106.552 58.276H101.724V63.1036H106.552V58.276Z" fill="black" fill-opacity="0.88"/>
<path d="M121.034 58.276H116.207V63.1036H121.034V58.276Z" fill="black" fill-opacity="0.88"/>
<path d="M130.69 58.276H125.862V63.1036H130.69V58.276Z" fill="black" fill-opacity="0.88"/>
<path d="M140.345 58.276H135.517V63.1036H140.345V58.276Z" fill="black" fill-opacity="0.88"/>
<path d="M150 58.276H145.172V63.1036H150V58.276Z" fill="black" fill-opacity="0.88"/>
<path d="M14.8275 63.1036H9.99991V67.9312H14.8275V63.1036Z" fill="black" fill-opacity="0.88"/>
<path d="M19.6551 63.1036H14.8275V67.9312H19.6551V63.1036Z" fill="black" fill-opacity="0.88"/>
<path d="M24.4827 63.1036H19.6551V67.9312H24.4827V63.1036Z" fill="black" fill-opacity="0.88"/>
<path d="M29.3103 63.1036H24.4827V67.9312H29.3103V63.1036Z" fill="black" fill-opacity="0.88"/>
<path d="M38.9654 63.1036H34.1378V67.9312H38.9654V63.1036Z" fill="black" fill-opacity="0.88"/>
<path d="M63.1034 63.1036H58.2758V67.9312H63.1034V63.1036Z" fill="black" fill-opacity="0.88"/>
<path d="M67.9309 63.1036H63.1034V67.9312H67.9309V63.1036Z" fill="black" fill-opacity="0.88"/>
<path d="M72.7585 63.1036H67.9309V67.9312H72.7585V63.1036Z" fill="black" fill-opacity="0.88"/>
<path d="M77.5861 63.1036H72.7585V67.9312H77.5861V63.1036Z" fill="black" fill-opacity="0.88"/>
<path d="M87.2413 63.1036H82.4137V67.9312H87.2413V63.1036Z" fill="black" fill-opacity="0.88"/>
<path d="M101.724 63.1036H96.8965V67.9312H101.724V63.1036Z" fill="black" fill-opacity="0.88"/>
<path d="M121.034 63.1036H116.207V67.9312H121.034V63.1036Z" fill="black" fill-opacity="0.88"/>
<path d="M125.862 63.1036H121.034V67.9312H125.862V63.1036Z" fill="black" fill-opacity="0.88"/>
<path d="M130.69 63.1036H125.862V67.9312H130.69V63.1036Z" fill="black" fill-opacity="0.88"/>
<path d="M145.172 63.1036H140.345V67.9312H145.172V63.1036Z" fill="black" fill-opacity="0.88"/>
<path d="M24.4827 67.9312H19.6551V72.7587H24.4827V67.9312Z" fill="black" fill-opacity="0.88"/>
<path d="M29.3103 67.9312H24.4827V72.7587H29.3103V67.9312Z" fill="black" fill-opacity="0.88"/>
<path d="M34.1378 67.9312H29.3103V72.7587H34.1378V67.9312Z" fill="black" fill-opacity="0.88"/>
<path d="M38.9654 67.9312H34.1378V72.7587H38.9654V67.9312Z" fill="black" fill-opacity="0.88"/>
<path d="M43.793 67.9312H38.9654V72.7587H43.793V67.9312Z" fill="black" fill-opacity="0.88"/>
<path d="M53.4482 67.9312H48.6206V72.7587H53.4482V67.9312Z" fill="black" fill-opacity="0.88"/>
<path d="M63.1034 67.9312H58.2758V72.7587H63.1034V67.9312Z" fill="black" fill-opacity="0.88"/>
<path d="M67.9309 67.9312H63.1034V72.7587H67.9309V67.9312Z" fill="black" fill-opacity="0.88"/>
<path d="M72.7585 67.9312H67.9309V72.7587H72.7585V67.9312Z" fill="black" fill-opacity="0.88"/>
<path d="M77.5861 67.9312H72.7585V72.7587H77.5861V67.9312Z" fill="black" fill-opacity="0.88"/>
<path d="M82.4137 67.9312H77.5861V72.7587H82.4137V67.9312Z" fill="black" fill-opacity="0.88"/>
<path d="M87.2413 67.9312H82.4137V72.7587H87.2413V67.9312Z" fill="black" fill-opacity="0.88"/>
<path d="M96.8965 67.9312H92.0689V72.7587H96.8965V67.9312Z" fill="black" fill-opacity="0.88"/>
<path d="M106.552 67.9312H101.724V72.7587H106.552V67.9312Z" fill="black" fill-opacity="0.88"/>
<path d="M111.379 67.9312H106.552V72.7587H111.379V67.9312Z" fill="black" fill-opacity="0.88"/>
<path d="M125.862 67.9312H121.034V72.7587H125.862V67.9312Z" fill="black" fill-opacity="0.88"/>
<path d="M130.69 67.9312H125.862V72.7587H130.69V67.9312Z" fill="black" fill-opacity="0.88"/>
<path d="M48.6206 72.7587H43.793V77.5863H48.6206V72.7587Z" fill="black" fill-opacity="0.88"/>
<path d="M53.4482 72.7587H48.6206V77.5863H53.4482V72.7587Z" fill="black" fill-opacity="0.88"/>
<path d="M58.2758 72.7587H53.4482V77.5863H58.2758V72.7587Z" fill="black" fill-opacity="0.88"/>
<path d="M63.1034 72.7587H58.2758V77.5863H63.1034V72.7587Z" fill="black" fill-opacity="0.88"/>
<path d="M67.9309 72.7587H63.1034V77.5863H67.9309V72.7587Z" fill="black" fill-opacity="0.88"/>
<path d="M72.7585 72.7587H67.9309V77.5863H72.7585V72.7587Z" fill="black" fill-opacity="0.88"/>
<path d="M77.5861 72.7587H72.7585V77.5863H77.5861V72.7587Z" fill="black" fill-opacity="0.88"/>
<path d="M82.4137 72.7587H77.5861V77.5863H82.4137V72.7587Z" fill="black" fill-opacity="0.88"/>
<path d="M96.8965 72.7587H92.0689V77.5863H96.8965V72.7587Z" fill="black" fill-opacity="0.88"/>
<path d="M111.379 72.7587H106.552V77.5863H111.379V72.7587Z" fill="black" fill-opacity="0.88"/>
<path d="M130.69 72.7587H125.862V77.5863H130.69V72.7587Z" fill="black" fill-opacity="0.88"/>
<path d="M140.345 72.7587H135.517V77.5863H140.345V72.7587Z" fill="black" fill-opacity="0.88"/>
<path d="M145.172 72.7587H140.345V77.5863H145.172V72.7587Z" fill="black" fill-opacity="0.88"/>
<path d="M34.1378 77.5863H29.3103V82.4139H34.1378V77.5863Z" fill="black" fill-opacity="0.88"/>
<path d="M43.793 77.5863H38.9654V82.4139H43.793V77.5863Z" fill="black" fill-opacity="0.88"/>
<path d="M77.5861 77.5863H72.7585V82.4139H77.5861V77.5863Z" fill="black" fill-opacity="0.88"/>
<path d="M92.0689 77.5863H87.2413V82.4139H92.0689V77.5863Z" fill="black" fill-opacity="0.88"/>
<path d="M96.8965 77.5863H92.0689V82.4139H96.8965V77.5863Z" fill="black" fill-opacity="0.88"/>
<path d="M106.552 77.5863H101.724V82.4139H106.552V77.5863Z" fill="black" fill-opacity="0.88"/>
<path d="M111.379 77.5863H106.552V82.4139H111.379V77.5863Z" fill="black" fill-opacity="0.88"/>
<path d="M116.207 77.5863H111.379V82.4139H116.207V77.5863Z" fill="black" fill-opacity="0.88"/>
<path d="M121.034 77.5863H116.207V82.4139H121.034V77.5863Z" fill="black" fill-opacity="0.88"/>
<path d="M125.862 77.5863H121.034V82.4139H125.862V77.5863Z" fill="black" fill-opacity="0.88"/>
<path d="M130.69 77.5863H125.862V82.4139H130.69V77.5863Z" fill="black" fill-opacity="0.88"/>
<path d="M140.345 77.5863H135.517V82.4139H140.345V77.5863Z" fill="black" fill-opacity="0.88"/>
<path d="M14.8275 82.4139H9.99991V87.2415H14.8275V82.4139Z" fill="black" fill-opacity="0.88"/>
<path d="M24.4827 82.4139H19.6551V87.2415H24.4827V82.4139Z" fill="black" fill-opacity="0.88"/>
<path d="M34.1378 82.4139H29.3103V87.2415H34.1378V82.4139Z" fill="black" fill-opacity="0.88"/>
<path d="M38.9654 82.4139H34.1378V87.2415H38.9654V82.4139Z" fill="black" fill-opacity="0.88"/>
<path d="M48.6206 82.4139H43.793V87.2415H48.6206V82.4139Z" fill="black" fill-opacity="0.88"/>
<path d="M63.1034 82.4139H58.2758V87.2415H63.1034V82.4139Z" fill="black" fill-opacity="0.88"/>
<path d="M72.7585 82.4139H67.9309V87.2415H72.7585V82.4139Z" fill="black" fill-opacity="0.88"/>
<path d="M87.2413 82.4139H82.4137V87.2415H87.2413V82.4139Z" fill="black" fill-opacity="0.88"/>
<path d="M101.724 82.4139H96.8965V87.2415H101.724V82.4139Z" fill="black" fill-opacity="0.88"/>
<path d="M111.379 82.4139H106.552V87.2415H111.379V82.4139Z" fill="black" fill-opacity="0.88"/>
<path d="M125.862 82.4139H121.034V87.2415H125.862V82.4139Z" fill="black" fill-opacity="0.88"/>
<path d="M140.345 82.4139H135.517V87.2415H140.345V82.4139Z" fill="black" fill-opacity="0.88"/>
<path d="M145.172 82.4139H140.345V87.2415H145.172V82.4139Z" fill="black" fill-opacity="0.88"/>
<path d="M14.8275 87.2415H9.99991V92.0691H14.8275V87.2415Z" fill="black" fill-opacity="0.88"/>
<path d="M19.6551 87.2415H14.8275V92.0691H19.6551V87.2415Z" fill="black" fill-opacity="0.88"/>
<path d="M24.4827 87.2415H19.6551V92.0691H24.4827V87.2415Z" fill="black" fill-opacity="0.88"/>
<path d="M29.3103 87.2415H24.4827V92.0691H29.3103V87.2415Z" fill="black" fill-opacity="0.88"/>
<path d="M34.1378 87.2415H29.3103V92.0691H34.1378V87.2415Z" fill="black" fill-opacity="0.88"/>
<path d="M38.9654 87.2415H34.1378V92.0691H38.9654V87.2415Z" fill="black" fill-opacity="0.88"/>
<path d="M43.793 87.2415H38.9654V92.0691H43.793V87.2415Z" fill="black" fill-opacity="0.88"/>
<path d="M48.6206 87.2415H43.793V92.0691H48.6206V87.2415Z" fill="black" fill-opacity="0.88"/>
<path d="M58.2758 87.2415H53.4482V92.0691H58.2758V87.2415Z" fill="black" fill-opacity="0.88"/>
<path d="M63.1034 87.2415H58.2758V92.0691H63.1034V87.2415Z" fill="black" fill-opacity="0.88"/>
<path d="M67.9309 87.2415H63.1034V92.0691H67.9309V87.2415Z" fill="black" fill-opacity="0.88"/>
<path d="M72.7585 87.2415H67.9309V92.0691H72.7585V87.2415Z" fill="black" fill-opacity="0.88"/>
<path d="M77.5861 87.2415H72.7585V92.0691H77.5861V87.2415Z" fill="black" fill-opacity="0.88"/>
<path d="M82.4137 87.2415H77.5861V92.0691H82.4137V87.2415Z" fill="black" fill-opacity="0.88"/>
<path d="M92.0689 87.2415H87.2413V92.0691H92.0689V87.2415Z" fill="black" fill-opacity="0.88"/>
<path d="M96.8965 87.2415H92.0689V92.0691H96.8965V87.2415Z" fill="black" fill-opacity="0.88"/>
<path d="M111.379 87.2415H106.552V92.0691H111.379V87.2415Z" fill="black" fill-opacity="0.88"/>
<path d="M130.69 87.2415H125.862V92.0691H130.69V87.2415Z" fill="black" fill-opacity="0.88"/>
<path d="M19.6551 92.0691H14.8275V96.8967H19.6551V92.0691Z" fill="black" fill-opacity="0.88"/>
<path d="M29.3103 92.0691H24.4827V96.8967H29.3103V92.0691Z" fill="black" fill-opacity="0.88"/>
<path d="M34.1378 92.0691H29.3103V96.8967H34.1378V92.0691Z" fill="black" fill-opacity="0.88"/>
<path d="M53.4482 92.0691H48.6206V96.8967H53.4482V92.0691Z" fill="black" fill-opacity="0.88"/>
<path d="M58.2758 92.0691H53.4482V96.8967H58.2758V92.0691Z" fill="black" fill-opacity="0.88"/>
<path d="M67.9309 92.0691H63.1034V96.8967H67.9309V92.0691Z" fill="black" fill-opacity="0.88"/>
<path d="M77.5861 92.0691H72.7585V96.8967H77.5861V92.0691Z" fill="black" fill-opacity="0.88"/>
<path d="M111.379 92.0691H106.552V96.8967H111.379V92.0691Z" fill="black" fill-opacity="0.88"/>
<path d="M125.862 92.0691H121.034V96.8967H125.862V92.0691Z" fill="black" fill-opacity="0.88"/>
<path d="M140.345 92.0691H135.517V96.8967H140.345V92.0691Z" fill="black" fill-opacity="0.88"/>
<path d="M14.8275 96.8967H9.99991V101.724H14.8275V96.8967Z" fill="black" fill-opacity="0.88"/>
<path d="M24.4827 96.8967H19.6551V101.724H24.4827V96.8967Z" fill="black" fill-opacity="0.88"/>
<path d="M34.1378 96.8967H29.3103V101.724H34.1378V96.8967Z" fill="black" fill-opacity="0.88"/>
<path d="M38.9654 96.8967H34.1378V101.724H38.9654V96.8967Z" fill="black" fill-opacity="0.88"/>
<path d="M43.793 96.8967H38.9654V101.724H43.793V96.8967Z" fill="black" fill-opacity="0.88"/>
<path d="M58.2758 96.8967H53.4482V101.724H58.2758V96.8967Z" fill="black" fill-opacity="0.88"/>
<path d="M77.5861 96.8967H72.7585V101.724H77.5861V96.8967Z" fill="black" fill-opacity="0.88"/>
<path d="M92.0689 96.8967H87.2413V101.724H92.0689V96.8967Z" fill="black" fill-opacity="0.88"/>
<path d="M96.8965 96.8967H92.0689V101.724H96.8965V96.8967Z" fill="black" fill-opacity="0.88"/>
<path d="M106.552 96.8967H101.724V101.724H106.552V96.8967Z" fill="black" fill-opacity="0.88"/>
<path d="M116.207 96.8967H111.379V101.724H116.207V96.8967Z" fill="black" fill-opacity="0.88"/>
<path d="M121.034 96.8967H116.207V101.724H121.034V96.8967Z" fill="black" fill-opacity="0.88"/>
<path d="M125.862 96.8967H121.034V101.724H125.862V96.8967Z" fill="black" fill-opacity="0.88"/>
<path d="M140.345 96.8967H135.517V101.724H140.345V96.8967Z" fill="black" fill-opacity="0.88"/>
<path d="M145.172 96.8967H140.345V101.724H145.172V96.8967Z" fill="black" fill-opacity="0.88"/>
<path d="M150 96.8967H145.172V101.724H150V96.8967Z" fill="black" fill-opacity="0.88"/>
<path d="M19.6551 101.724H14.8275V106.552H19.6551V101.724Z" fill="black" fill-opacity="0.88"/>
<path d="M24.4827 101.724H19.6551V106.552H24.4827V101.724Z" fill="black" fill-opacity="0.88"/>
<path d="M34.1378 101.724H29.3103V106.552H34.1378V101.724Z" fill="black" fill-opacity="0.88"/>
<path d="M48.6206 101.724H43.793V106.552H48.6206V101.724Z" fill="black" fill-opacity="0.88"/>
<path d="M53.4482 101.724H48.6206V106.552H53.4482V101.724Z" fill="black" fill-opacity="0.88"/>
<path d="M58.2758 101.724H53.4482V106.552H58.2758V101.724Z" fill="black" fill-opacity="0.88"/>
<path d="M72.7585 101.724H67.9309V106.552H72.7585V101.724Z" fill="black" fill-opacity="0.88"/>
<path d="M82.4137 101.724H77.5861V106.552H82.4137V101.724Z" fill="black" fill-opacity="0.88"/>
<path d="M87.2413 101.724H82.4137V106.552H87.2413V101.724Z" fill="black" fill-opacity="0.88"/>
<path d="M96.8965 101.724H92.0689V106.552H96.8965V101.724Z" fill="black" fill-opacity="0.88"/>
<path d="M101.724 101.724H96.8965V106.552H101.724V101.724Z" fill="black" fill-opacity="0.88"/>
<path d="M106.552 101.724H101.724V106.552H106.552V101.724Z" fill="black" fill-opacity="0.88"/>
<path d="M111.379 101.724H106.552V106.552H111.379V101.724Z" fill="black" fill-opacity="0.88"/>
<path d="M116.207 101.724H111.379V106.552H116.207V101.724Z" fill="black" fill-opacity="0.88"/>
<path d="M121.034 101.724H116.207V106.552H121.034V101.724Z" fill="black" fill-opacity="0.88"/>
<path d="M125.862 101.724H121.034V106.552H125.862V101.724Z" fill="black" fill-opacity="0.88"/>
<path d="M130.69 101.724H125.862V106.552H130.69V101.724Z" fill="black" fill-opacity="0.88"/>
<path d="M150 101.724H145.172V106.552H150V101.724Z" fill="black" fill-opacity="0.88"/>
<path d="M14.8275 106.552H9.99991V111.379H14.8275V106.552Z" fill="black" fill-opacity="0.88"/>
<path d="M19.6551 106.552H14.8275V111.379H19.6551V106.552Z" fill="black" fill-opacity="0.88"/>
<path d="M24.4827 106.552H19.6551V111.379H24.4827V106.552Z" fill="black" fill-opacity="0.88"/>
<path d="M38.9654 106.552H34.1378V111.379H38.9654V106.552Z" fill="black" fill-opacity="0.88"/>
<path d="M43.793 106.552H38.9654V111.379H43.793V106.552Z" fill="black" fill-opacity="0.88"/>
<path d="M48.6206 106.552H43.793V111.379H48.6206V106.552Z" fill="black" fill-opacity="0.88"/>
<path d="M67.9309 106.552H63.1034V111.379H67.9309V106.552Z" fill="black" fill-opacity="0.88"/>
<path d="M72.7585 106.552H67.9309V111.379H72.7585V106.552Z" fill="black" fill-opacity="0.88"/>
<path d="M82.4137 106.552H77.5861V111.379H82.4137V106.552Z" fill="black" fill-opacity="0.88"/>
<path d="M87.2413 106.552H82.4137V111.379H87.2413V106.552Z" fill="black" fill-opacity="0.88"/>
<path d="M96.8965 106.552H92.0689V111.379H96.8965V106.552Z" fill="black" fill-opacity="0.88"/>
<path d="M101.724 106.552H96.8965V111.379H101.724V106.552Z" fill="black" fill-opacity="0.88"/>
<path d="M111.379 106.552H106.552V111.379H111.379V106.552Z" fill="black" fill-opacity="0.88"/>
<path d="M116.207 106.552H111.379V111.379H116.207V106.552Z" fill="black" fill-opacity="0.88"/>
<path d="M121.034 106.552H116.207V111.379H121.034V106.552Z" fill="black" fill-opacity="0.88"/>
<path d="M125.862 106.552H121.034V111.379H125.862V106.552Z" fill="black" fill-opacity="0.88"/>
<path d="M130.69 106.552H125.862V111.379H130.69V106.552Z" fill="black" fill-opacity="0.88"/>
<path d="M135.517 106.552H130.69V111.379H135.517V106.552Z" fill="black" fill-opacity="0.88"/>
<path d="M150 106.552H145.172V111.379H150V106.552Z" fill="black" fill-opacity="0.88"/>
<path d="M53.4482 111.379H48.6206V116.207H53.4482V111.379Z" fill="black" fill-opacity="0.88"/>
<path d="M58.2758 111.379H53.4482V116.207H58.2758V111.379Z" fill="black" fill-opacity="0.88"/>
<path d="M63.1034 111.379H58.2758V116.207H63.1034V111.379Z" fill="black" fill-opacity="0.88"/>
<path d="M87.2413 111.379H82.4137V116.207H87.2413V111.379Z" fill="black" fill-opacity="0.88"/>
<path d="M101.724 111.379H96.8965V116.207H101.724V111.379Z" fill="black" fill-opacity="0.88"/>
<path d="M106.552 111.379H101.724V116.207H106.552V111.379Z" fill="black" fill-opacity="0.88"/>
<path d="M111.379 111.379H106.552V116.207H111.379V111.379Z" fill="black" fill-opacity="0.88"/>
<path d="M130.69 111.379H125.862V116.207H130.69V111.379Z" fill="black" fill-opacity="0.88"/>
<path d="M135.517 111.379H130.69V116.207H135.517V111.379Z" fill="black" fill-opacity="0.88"/>
<path d="M140.345 111.379H135.517V116.207H140.345V111.379Z" fill="black" fill-opacity="0.88"/>
<path d="M14.8275 116.207H9.99991V121.035H14.8275V116.207Z" fill="black" fill-opacity="0.88"/>
<path d="M19.6551 116.207H14.8275V121.035H19.6551V116.207Z" fill="black" fill-opacity="0.88"/>
<path d="M24.4827 116.207H19.6551V121.035H24.4827V116.207Z" fill="black" fill-opacity="0.88"/>
<path d="M29.3103 116.207H24.4827V121.035H29.3103V116.207Z" fill="black" fill-opacity="0.88"/>
<path d="M34.1378 116.207H29.3103V121.035H34.1378V116.207Z" fill="black" fill-opacity="0.88"/>
<path d="M38.9654 116.207H34.1378V121.035H38.9654V116.207Z" fill="black" fill-opacity="0.88"/>
<path d="M43.793 116.207H38.9654V121.035H43.793V116.207Z" fill="black" fill-opacity="0.88"/>
<path d="M72.7585 116.207H67.9309V121.035H72.7585V116.207Z" fill="black" fill-opacity="0.88"/>
<path d="M77.5861 116.207H72.7585V121.035H77.5861V116.207Z" fill="black" fill-opacity="0.88"/>
<path d="M101.724 116.207H96.8965V121.035H101.724V116.207Z" fill="black" fill-opacity="0.88"/>
<path d="M106.552 116.207H101.724V121.035H106.552V116.207Z" fill="black" fill-opacity="0.88"/>
<path d="M111.379 116.207H106.552V121.035H111.379V116.207Z" fill="black" fill-opacity="0.88"/>
<path d="M121.034 116.207H116.207V121.035H121.034V116.207Z" fill="black" fill-opacity="0.88"/>
<path d="M130.69 116.207H125.862V121.035H130.69V116.207Z" fill="black" fill-opacity="0.88"/>
<path d="M150 116.207H145.172V121.035H150V116.207Z" fill="black" fill-opacity="0.88"/>
<path d="M14.8275 121.035H9.99991V125.862H14.8275V121.035Z" fill="black" fill-opacity="0.88"/>
<path d="M43.793 121.035H38.9654V125.862H43.793V121.035Z" fill="black" fill-opacity="0.88"/>
<path d="M58.2758 121.035H53.4482V125.862H58.2758V121.035Z" fill="black" fill-opacity="0.88"/>
<path d="M63.1034 121.035H58.2758V125.862H63.1034V121.035Z" fill="black" fill-opacity="0.88"/>
<path d="M72.7585 121.035H67.9309V125.862H72.7585V121.035Z" fill="black" fill-opacity="0.88"/>
<path d="M82.4137 121.035H77.5861V125.862H82.4137V121.035Z" fill="black" fill-opacity="0.88"/>
<path d="M87.2413 121.035H82.4137V125.862H87.2413V121.035Z" fill="black" fill-opacity="0.88"/>
<path d="M106.552 121.035H101.724V125.862H106.552V121.035Z" fill="black" fill-opacity="0.88"/>
<path d="M111.379 121.035H106.552V125.862H111.379V121.035Z" fill="black" fill-opacity="0.88"/>
<path d="M130.69 121.035H125.862V125.862H130.69V121.035Z" fill="black" fill-opacity="0.88"/>
<path d="M135.517 121.035H130.69V125.862H135.517V121.035Z" fill="black" fill-opacity="0.88"/>
<path d="M140.345 121.035H135.517V125.862H140.345V121.035Z" fill="black" fill-opacity="0.88"/>
<path d="M145.172 121.035H140.345V125.862H145.172V121.035Z" fill="black" fill-opacity="0.88"/>
<path d="M14.8275 125.862H9.99991V130.69H14.8275V125.862Z" fill="black" fill-opacity="0.88"/>
<path d="M24.4827 125.862H19.6551V130.69H24.4827V125.862Z" fill="black" fill-opacity="0.88"/>
<path d="M29.3103 125.862H24.4827V130.69H29.3103V125.862Z" fill="black" fill-opacity="0.88"/>
<path d="M34.1378 125.862H29.3103V130.69H34.1378V125.862Z" fill="black" fill-opacity="0.88"/>
<path d="M43.793 125.862H38.9654V130.69H43.793V125.862Z" fill="black" fill-opacity="0.88"/>
<path d="M53.4482 125.862H48.6206V130.69H53.4482V125.862Z" fill="black" fill-opacity="0.88"/>
<path d="M58.2758 125.862H53.4482V130.69H58.2758V125.862Z" fill="black" fill-opacity="0.88"/>
<path d="M77.5861 125.862H72.7585V130.69H77.5861V125.862Z" fill="black" fill-opacity="0.88"/>
<path d="M87.2413 125.862H82.4137V130.69H87.2413V125.862Z" fill="black" fill-opacity="0.88"/>
<path d="M96.8965 125.862H92.0689V130.69H96.8965V125.862Z" fill="black" fill-opacity="0.88"/>
<path d="M106.552 125.862H101.724V130.69H106.552V125.862Z" fill="black" fill-opacity="0.88"/>
<path d="M111.379 125.862H106.552V130.69H111.379V125.862Z" fill="black" fill-opacity="0.88"/>
<path d="M116.207 125.862H111.379V130.69H116.207V125.862Z" fill="black" fill-opacity="0.88"/>
<path d="M121.034 125.862H116.207V130.69H121.034V125.862Z" fill="black" fill-opacity="0.88"/>
<path d="M125.862 125.862H121.034V130.69H125.862V125.862Z" fill="black" fill-opacity="0.88"/>
<path d="M130.69 125.862H125.862V130.69H130.69V125.862Z" fill="black" fill-opacity="0.88"/>
<path d="M140.345 125.862H135.517V130.69H140.345V125.862Z" fill="black" fill-opacity="0.88"/>
<path d="M150 125.862H145.172V130.69H150V125.862Z" fill="black" fill-opacity="0.88"/>
<path d="M14.8275 130.69H9.99991V135.517H14.8275V130.69Z" fill="black" fill-opacity="0.88"/>
<path d="M24.4827 130.69H19.6551V135.517H24.4827V130.69Z" fill="black" fill-opacity="0.88"/>
<path d="M29.3103 130.69H24.4827V135.517H29.3103V130.69Z" fill="black" fill-opacity="0.88"/>
<path d="M34.1378 130.69H29.3103V135.517H34.1378V130.69Z" fill="black" fill-opacity="0.88"/>
<path d="M43.793 130.69H38.9654V135.517H43.793V130.69Z" fill="black" fill-opacity="0.88"/>
<path d="M67.9309 130.69H63.1034V135.517H67.9309V130.69Z" fill="black" fill-opacity="0.88"/>
<path d="M77.5861 130.69H72.7585V135.517H77.5861V130.69Z" fill="black" fill-opacity="0.88"/>
<path d="M92.0689 130.69H87.2413V135.517H92.0689V130.69Z" fill="black" fill-opacity="0.88"/>
<path d="M101.724 130.69H96.8965V135.517H101.724V130.69Z" fill="black" fill-opacity="0.88"/>
<path d="M106.552 130.69H101.724V135.517H106.552V130.69Z" fill="black" fill-opacity="0.88"/>
<path d="M111.379 130.69H106.552V135.517H111.379V130.69Z" fill="black" fill-opacity="0.88"/>
<path d="M116.207 130.69H111.379V135.517H116.207V130.69Z" fill="black" fill-opacity="0.88"/>
<path d="M121.034 130.69H116.207V135.517H121.034V130.69Z" fill="black" fill-opacity="0.88"/>
<path d="M130.69 130.69H125.862V135.517H130.69V130.69Z" fill="black" fill-opacity="0.88"/>
<path d="M145.172 130.69H140.345V135.517H145.172V130.69Z" fill="black" fill-opacity="0.88"/>
<path d="M150 130.69H145.172V135.517H150V130.69Z" fill="black" fill-opacity="0.88"/>
<path d="M14.8275 135.517H9.99991V140.345H14.8275V135.517Z" fill="black" fill-opacity="0.88"/>
<path d="M24.4827 135.517H19.6551V140.345H24.4827V135.517Z" fill="black" fill-opacity="0.88"/>
<path d="M29.3103 135.517H24.4827V140.345H29.3103V135.517Z" fill="black" fill-opacity="0.88"/>
<path d="M34.1378 135.517H29.3103V140.345H34.1378V135.517Z" fill="black" fill-opacity="0.88"/>
<path d="M43.793 135.517H38.9654V140.345H43.793V135.517Z" fill="black" fill-opacity="0.88"/>
<path d="M53.4482 135.517H48.6206V140.345H53.4482V135.517Z" fill="black" fill-opacity="0.88"/>
<path d="M58.2758 135.517H53.4482V140.345H58.2758V135.517Z" fill="black" fill-opacity="0.88"/>
<path d="M63.1034 135.517H58.2758V140.345H63.1034V135.517Z" fill="black" fill-opacity="0.88"/>
<path d="M77.5861 135.517H72.7585V140.345H77.5861V135.517Z" fill="black" fill-opacity="0.88"/>
<path d="M82.4137 135.517H77.5861V140.345H82.4137V135.517Z" fill="black" fill-opacity="0.88"/>
<path d="M87.2413 135.517H82.4137V140.345H87.2413V135.517Z" fill="black" fill-opacity="0.88"/>
<path d="M96.8965 135.517H92.0689V140.345H96.8965V135.517Z" fill="black" fill-opacity="0.88"/>
<path d="M106.552 135.517H101.724V140.345H106.552V135.517Z" fill="black" fill-opacity="0.88"/>
<path d="M111.379 135.517H106.552V140.345H111.379V135.517Z" fill="black" fill-opacity="0.88"/>
<path d="M140.345 135.517H135.517V140.345H140.345V135.517Z" fill="black" fill-opacity="0.88"/>
<path d="M145.172 135.517H140.345V140.345H145.172V135.517Z" fill="black" fill-opacity="0.88"/>
<path d="M14.8275 140.345H9.99991V145.173H14.8275V140.345Z" fill="black" fill-opacity="0.88"/>
<path d="M43.793 140.345H38.9654V145.173H43.793V140.345Z" fill="black" fill-opacity="0.88"/>
<path d="M53.4482 140.345H48.6206V145.173H53.4482V140.345Z" fill="black" fill-opacity="0.88"/>
<path d="M58.2758 140.345H53.4482V145.173H58.2758V140.345Z" fill="black" fill-opacity="0.88"/>
<path d="M77.5861 140.345H72.7585V145.173H77.5861V140.345Z" fill="black" fill-opacity="0.88"/>
<path d="M96.8965 140.345H92.0689V145.173H96.8965V140.345Z" fill="black" fill-opacity="0.88"/>
<path d="M111.379 140.345H106.552V145.173H111.379V140.345Z" fill="black" fill-opacity="0.88"/>
<path d="M135.517 140.345H130.69V145.173H135.517V140.345Z" fill="black" fill-opacity="0.88"/>
<path d="M140.345 140.345H135.517V145.173H140.345V140.345Z" fill="black" fill-opacity="0.88"/>
<path d="M14.8275 145.173H9.99991V150H14.8275V145.173Z" fill="black" fill-opacity="0.88"/>
<path d="M19.6551 145.173H14.8275V150H19.6551V145.173Z" fill="black" fill-opacity="0.88"/>
<path d="M24.4827 145.173H19.6551V150H24.4827V145.173Z" fill="black" fill-opacity="0.88"/>
<path d="M29.3103 145.173H24.4827V150H29.3103V145.173Z" fill="black" fill-opacity="0.88"/>
<path d="M34.1378 145.173H29.3103V150H34.1378V145.173Z" fill="black" fill-opacity="0.88"/>
<path d="M38.9654 145.173H34.1378V150H38.9654V145.173Z" fill="black" fill-opacity="0.88"/>
<path d="M43.793 145.173H38.9654V150H43.793V145.173Z" fill="black" fill-opacity="0.88"/>
<path d="M53.4482 145.173H48.6206V150H53.4482V145.173Z" fill="black" fill-opacity="0.88"/>
<path d="M67.9309 145.173H63.1034V150H67.9309V145.173Z" fill="black" fill-opacity="0.88"/>
<path d="M72.7585 145.173H67.9309V150H72.7585V145.173Z" fill="black" fill-opacity="0.88"/>
<path d="M77.5861 145.173H72.7585V150H77.5861V145.173Z" fill="black" fill-opacity="0.88"/>
<path d="M82.4137 145.173H77.5861V150H82.4137V145.173Z" fill="black" fill-opacity="0.88"/>
<path d="M87.2413 145.173H82.4137V150H87.2413V145.173Z" fill="black" fill-opacity="0.88"/>
<path d="M101.724 145.173H96.8965V150H101.724V145.173Z" fill="black" fill-opacity="0.88"/>
<path d="M140.345 145.173H135.517V150H140.345V145.173Z" fill="black" fill-opacity="0.88"/>
<path d="M145.172 145.173H140.345V150H145.172V145.173Z" fill="black" fill-opacity="0.88"/>
</g>
<path d="M15.3422 173.14C14.5209 173.14 13.8209 172.986 13.2422 172.678C12.6729 172.37 12.2342 171.936 11.9262 171.376C11.6275 170.816 11.4595 170.158 11.4222 169.402C11.4129 168.991 11.4082 168.557 11.4082 168.1C11.4082 167.633 11.4129 167.19 11.4222 166.77C11.4595 166.014 11.6275 165.361 11.9262 164.81C12.2342 164.259 12.6775 163.83 13.2562 163.522C13.8349 163.214 14.5302 163.06 15.3422 163.06C16.0049 163.06 16.5789 163.153 17.0642 163.34C17.5495 163.527 17.9462 163.765 18.2542 164.054C18.5715 164.334 18.8049 164.628 18.9542 164.936C19.1129 165.244 19.1969 165.515 19.2062 165.748C19.2155 165.832 19.1922 165.902 19.1362 165.958C19.0802 166.005 19.0055 166.028 18.9122 166.028H18.0862C17.9929 166.028 17.9229 166.009 17.8762 165.972C17.8389 165.935 17.8015 165.869 17.7642 165.776C17.6802 165.533 17.5402 165.295 17.3442 165.062C17.1575 164.829 16.9009 164.637 16.5742 164.488C16.2569 164.329 15.8462 164.25 15.3422 164.25C14.6049 164.25 14.0075 164.451 13.5502 164.852C13.1022 165.253 12.8595 165.916 12.8222 166.84C12.7942 167.671 12.7942 168.501 12.8222 169.332C12.8595 170.265 13.1069 170.937 13.5642 171.348C14.0215 171.749 14.6189 171.95 15.3562 171.95C15.8509 171.95 16.2895 171.861 16.6722 171.684C17.0642 171.497 17.3722 171.213 17.5962 170.83C17.8202 170.447 17.9322 169.962 17.9322 169.374V168.786H15.8322C15.7389 168.786 15.6595 168.758 15.5942 168.702C15.5382 168.637 15.5102 168.553 15.5102 168.45V168.002C15.5102 167.899 15.5382 167.82 15.5942 167.764C15.6595 167.699 15.7389 167.666 15.8322 167.666H18.9962C19.0989 167.666 19.1782 167.699 19.2342 167.764C19.2902 167.82 19.3182 167.899 19.3182 168.002V169.346C19.3182 170.111 19.1595 170.779 18.8422 171.348C18.5342 171.917 18.0815 172.361 17.4842 172.678C16.8869 172.986 16.1729 173.14 15.3422 173.14ZM21.1755 173C21.0822 173 21.0028 172.972 20.9375 172.916C20.8815 172.851 20.8535 172.771 20.8535 172.678V166.056C20.8535 165.963 20.8815 165.883 20.9375 165.818C21.0028 165.753 21.0822 165.72 21.1755 165.72H21.8195C21.9128 165.72 21.9922 165.753 22.0575 165.818C22.1228 165.883 22.1555 165.963 22.1555 166.056V166.672C22.3422 166.355 22.5988 166.117 22.9255 165.958C23.2522 165.799 23.6442 165.72 24.1015 165.72H24.6615C24.7548 165.72 24.8295 165.753 24.8855 165.818C24.9415 165.874 24.9695 165.949 24.9695 166.042V166.616C24.9695 166.709 24.9415 166.784 24.8855 166.84C24.8295 166.896 24.7548 166.924 24.6615 166.924H23.8215C23.3175 166.924 22.9208 167.073 22.6315 167.372C22.3422 167.661 22.1975 168.058 22.1975 168.562V172.678C22.1975 172.771 22.1648 172.851 22.0995 172.916C22.0342 172.972 21.9548 173 21.8615 173H21.1755ZM28.6079 173.14C28.0105 173.14 27.5019 173.009 27.0819 172.748C26.6712 172.477 26.3585 172.104 26.1439 171.628C25.9292 171.152 25.8219 170.606 25.8219 169.99V166.042C25.8219 165.949 25.8499 165.874 25.9059 165.818C25.9712 165.753 26.0505 165.72 26.1439 165.72H26.8439C26.9372 165.72 27.0119 165.753 27.0679 165.818C27.1332 165.874 27.1659 165.949 27.1659 166.042V169.92C27.1659 171.311 27.7725 172.006 28.9859 172.006C29.5645 172.006 30.0265 171.824 30.3719 171.46C30.7265 171.087 30.9039 170.573 30.9039 169.92V166.042C30.9039 165.949 30.9319 165.874 30.9879 165.818C31.0532 165.753 31.1325 165.72 31.2259 165.72H31.9119C32.0145 165.72 32.0939 165.753 32.1499 165.818C32.2059 165.874 32.2339 165.949 32.2339 166.042V172.678C32.2339 172.771 32.2059 172.851 32.1499 172.916C32.0939 172.972 32.0145 173 31.9119 173H31.2679C31.1745 173 31.0952 172.972 31.0299 172.916C30.9739 172.851 30.9459 172.771 30.9459 172.678V172.062C30.6939 172.389 30.3859 172.65 30.0219 172.846C29.6672 173.042 29.1959 173.14 28.6079 173.14ZM34.3697 175.66C34.2764 175.66 34.1971 175.627 34.1317 175.562C34.0757 175.506 34.0477 175.431 34.0477 175.338V166.042C34.0477 165.949 34.0757 165.874 34.1317 165.818C34.1971 165.753 34.2764 165.72 34.3697 165.72H35.0137C35.1071 165.72 35.1817 165.753 35.2377 165.818C35.3031 165.874 35.3357 165.949 35.3357 166.042V166.658C35.5597 166.35 35.8584 166.093 36.2317 165.888C36.6051 165.683 37.0717 165.58 37.6317 165.58C38.1544 165.58 38.5977 165.669 38.9617 165.846C39.3351 166.023 39.6384 166.266 39.8717 166.574C40.1144 166.882 40.2964 167.232 40.4177 167.624C40.5391 168.016 40.6044 168.436 40.6137 168.884C40.6231 169.033 40.6277 169.192 40.6277 169.36C40.6277 169.528 40.6231 169.687 40.6137 169.836C40.6044 170.275 40.5391 170.695 40.4177 171.096C40.2964 171.488 40.1144 171.838 39.8717 172.146C39.6384 172.445 39.3351 172.687 38.9617 172.874C38.5977 173.051 38.1544 173.14 37.6317 173.14C37.0904 173.14 36.6331 173.042 36.2597 172.846C35.8957 172.641 35.5971 172.389 35.3637 172.09V175.338C35.3637 175.431 35.3357 175.506 35.2797 175.562C35.2237 175.627 35.1444 175.66 35.0417 175.66H34.3697ZM37.3377 172.006C37.8231 172.006 38.2011 171.903 38.4717 171.698C38.7517 171.483 38.9524 171.208 39.0737 170.872C39.1951 170.527 39.2651 170.158 39.2837 169.766C39.2931 169.495 39.2931 169.225 39.2837 168.954C39.2651 168.562 39.1951 168.198 39.0737 167.862C38.9524 167.517 38.7517 167.241 38.4717 167.036C38.2011 166.821 37.8231 166.714 37.3377 166.714C36.8804 166.714 36.5071 166.821 36.2177 167.036C35.9377 167.251 35.7277 167.526 35.5877 167.862C35.4571 168.189 35.3824 168.525 35.3637 168.87C35.3544 169.019 35.3497 169.197 35.3497 169.402C35.3497 169.607 35.3544 169.789 35.3637 169.948C35.3731 170.275 35.4477 170.597 35.5877 170.914C35.7371 171.231 35.9564 171.493 36.2457 171.698C36.5351 171.903 36.8991 172.006 37.3377 172.006ZM45.0756 173.14C44.3662 173.14 43.7736 173.005 43.2976 172.734C42.8216 172.463 42.4576 172.09 42.2056 171.614C41.9536 171.129 41.8136 170.578 41.7856 169.962C41.7762 169.803 41.7716 169.603 41.7716 169.36C41.7716 169.108 41.7762 168.907 41.7856 168.758C41.8136 168.133 41.9536 167.582 42.2056 167.106C42.4669 166.63 42.8356 166.257 43.3116 165.986C43.7876 165.715 44.3756 165.58 45.0756 165.58C45.7756 165.58 46.3636 165.715 46.8396 165.986C47.3156 166.257 47.6796 166.63 47.9316 167.106C48.1929 167.582 48.3376 168.133 48.3656 168.758C48.3749 168.907 48.3796 169.108 48.3796 169.36C48.3796 169.603 48.3749 169.803 48.3656 169.962C48.3376 170.578 48.1976 171.129 47.9456 171.614C47.6936 172.09 47.3296 172.463 46.8536 172.734C46.3776 173.005 45.7849 173.14 45.0756 173.14ZM45.0756 172.062C45.6542 172.062 46.1162 171.88 46.4616 171.516C46.8069 171.143 46.9936 170.601 47.0216 169.892C47.0309 169.752 47.0356 169.575 47.0356 169.36C47.0356 169.145 47.0309 168.968 47.0216 168.828C46.9936 168.119 46.8069 167.582 46.4616 167.218C46.1162 166.845 45.6542 166.658 45.0756 166.658C44.4969 166.658 44.0302 166.845 43.6756 167.218C43.3302 167.582 43.1482 168.119 43.1296 168.828C43.1202 168.968 43.1156 169.145 43.1156 169.36C43.1156 169.575 43.1202 169.752 43.1296 169.892C43.1482 170.601 43.3302 171.143 43.6756 171.516C44.0302 171.88 44.4969 172.062 45.0756 172.062ZM55.6643 173.14C55.151 173.14 54.7076 173.051 54.3343 172.874C53.961 172.687 53.653 172.44 53.4103 172.132C53.177 171.815 52.9996 171.455 52.8783 171.054C52.7663 170.653 52.701 170.228 52.6823 169.78C52.673 169.631 52.6683 169.491 52.6683 169.36C52.6683 169.229 52.673 169.089 52.6823 168.94C52.701 168.501 52.7663 168.081 52.8783 167.68C52.9996 167.279 53.177 166.919 53.4103 166.602C53.653 166.285 53.961 166.037 54.3343 165.86C54.7076 165.673 55.151 165.58 55.6643 165.58C56.215 165.58 56.6723 165.678 57.0363 165.874C57.4003 166.07 57.699 166.313 57.9323 166.602V163.382C57.9323 163.289 57.9603 163.214 58.0163 163.158C58.0816 163.093 58.161 163.06 58.2543 163.06H58.9263C59.0196 163.06 59.0943 163.093 59.1503 163.158C59.2156 163.214 59.2483 163.289 59.2483 163.382V172.678C59.2483 172.771 59.2156 172.851 59.1503 172.916C59.0943 172.972 59.0196 173 58.9263 173H58.2963C58.1936 173 58.1143 172.972 58.0583 172.916C58.0023 172.851 57.9743 172.771 57.9743 172.678V172.09C57.741 172.389 57.4376 172.641 57.0643 172.846C56.691 173.042 56.2243 173.14 55.6643 173.14ZM55.9583 172.006C56.425 172.006 56.7983 171.899 57.0783 171.684C57.3583 171.469 57.5683 171.199 57.7083 170.872C57.8483 170.536 57.923 170.195 57.9323 169.85C57.9416 169.701 57.9463 169.523 57.9463 169.318C57.9463 169.103 57.9416 168.921 57.9323 168.772C57.923 168.445 57.8436 168.123 57.6943 167.806C57.5543 167.489 57.3396 167.227 57.0503 167.022C56.7703 166.817 56.4063 166.714 55.9583 166.714C55.4823 166.714 55.1043 166.821 54.8243 167.036C54.5443 167.241 54.3436 167.517 54.2223 167.862C54.101 168.198 54.031 168.562 54.0123 168.954C54.003 169.225 54.003 169.495 54.0123 169.766C54.031 170.158 54.101 170.527 54.2223 170.872C54.3436 171.208 54.5443 171.483 54.8243 171.698C55.1043 171.903 55.4823 172.006 55.9583 172.006ZM63.9485 173.14C62.9871 173.14 62.2218 172.846 61.6525 172.258C61.0831 171.661 60.7705 170.849 60.7145 169.822C60.7051 169.701 60.7005 169.547 60.7005 169.36C60.7005 169.164 60.7051 169.005 60.7145 168.884C60.7518 168.221 60.9058 167.643 61.1765 167.148C61.4471 166.644 61.8158 166.257 62.2825 165.986C62.7585 165.715 63.3138 165.58 63.9485 165.58C64.6578 165.58 65.2505 165.729 65.7265 166.028C66.2118 166.327 66.5805 166.751 66.8325 167.302C67.0845 167.853 67.2105 168.497 67.2105 169.234V169.472C67.2105 169.575 67.1778 169.654 67.1125 169.71C67.0565 169.766 66.9818 169.794 66.8885 169.794H62.0445C62.0445 169.803 62.0445 169.822 62.0445 169.85C62.0445 169.878 62.0445 169.901 62.0445 169.92C62.0631 170.303 62.1471 170.662 62.2965 170.998C62.4458 171.325 62.6605 171.591 62.9405 171.796C63.2205 172.001 63.5565 172.104 63.9485 172.104C64.2845 172.104 64.5645 172.053 64.7885 171.95C65.0125 171.847 65.1945 171.735 65.3345 171.614C65.4745 171.483 65.5678 171.385 65.6145 171.32C65.6985 171.199 65.7638 171.129 65.8105 171.11C65.8571 171.082 65.9318 171.068 66.0345 171.068H66.7065C66.7998 171.068 66.8745 171.096 66.9305 171.152C66.9958 171.199 67.0238 171.269 67.0145 171.362C67.0051 171.502 66.9305 171.675 66.7905 171.88C66.6505 172.076 66.4498 172.272 66.1885 172.468C65.9271 172.664 65.6098 172.827 65.2365 172.958C64.8631 173.079 64.4338 173.14 63.9485 173.14ZM62.0445 168.828H65.8805V168.786C65.8805 168.366 65.8011 167.993 65.6425 167.666C65.4931 167.339 65.2738 167.083 64.9845 166.896C64.6951 166.7 64.3498 166.602 63.9485 166.602C63.5471 166.602 63.2018 166.7 62.9125 166.896C62.6325 167.083 62.4178 167.339 62.2685 167.666C62.1191 167.993 62.0445 168.366 62.0445 168.786V168.828ZM74.6541 173.14C73.6927 173.14 72.9274 172.846 72.3581 172.258C71.7887 171.661 71.4761 170.849 71.4201 169.822C71.4107 169.701 71.4061 169.547 71.4061 169.36C71.4061 169.164 71.4107 169.005 71.4201 168.884C71.4574 168.221 71.6114 167.643 71.8821 167.148C72.1527 166.644 72.5214 166.257 72.9881 165.986C73.4641 165.715 74.0194 165.58 74.6541 165.58C75.3634 165.58 75.9561 165.729 76.4321 166.028C76.9174 166.327 77.2861 166.751 77.5381 167.302C77.7901 167.853 77.9161 168.497 77.9161 169.234V169.472C77.9161 169.575 77.8834 169.654 77.8181 169.71C77.7621 169.766 77.6874 169.794 77.5941 169.794H72.7501C72.7501 169.803 72.7501 169.822 72.7501 169.85C72.7501 169.878 72.7501 169.901 72.7501 169.92C72.7687 170.303 72.8527 170.662 73.0021 170.998C73.1514 171.325 73.3661 171.591 73.6461 171.796C73.9261 172.001 74.2621 172.104 74.6541 172.104C74.9901 172.104 75.2701 172.053 75.4941 171.95C75.7181 171.847 75.9001 171.735 76.0401 171.614C76.1801 171.483 76.2734 171.385 76.3201 171.32C76.4041 171.199 76.4694 171.129 76.5161 171.11C76.5627 171.082 76.6374 171.068 76.7401 171.068H77.4121C77.5054 171.068 77.5801 171.096 77.6361 171.152C77.7014 171.199 77.7294 171.269 77.7201 171.362C77.7107 171.502 77.6361 171.675 77.4961 171.88C77.3561 172.076 77.1554 172.272 76.8941 172.468C76.6327 172.664 76.3154 172.827 75.9421 172.958C75.5687 173.079 75.1394 173.14 74.6541 173.14ZM72.7501 168.828H76.5861V168.786C76.5861 168.366 76.5067 167.993 76.3481 167.666C76.1987 167.339 75.9794 167.083 75.6901 166.896C75.4007 166.7 75.0554 166.602 74.6541 166.602C74.2527 166.602 73.9074 166.7 73.6181 166.896C73.3381 167.083 73.1234 167.339 72.9741 167.666C72.8247 167.993 72.7501 168.366 72.7501 168.786V168.828ZM79.6321 173C79.5387 173 79.4594 172.972 79.3941 172.916C79.3381 172.851 79.3101 172.771 79.3101 172.678V166.042C79.3101 165.949 79.3381 165.874 79.3941 165.818C79.4594 165.753 79.5387 165.72 79.6321 165.72H80.2621C80.3554 165.72 80.4301 165.753 80.4861 165.818C80.5514 165.874 80.5841 165.949 80.5841 166.042V166.532C80.7987 166.243 81.0694 166.014 81.3961 165.846C81.7227 165.669 82.1147 165.58 82.5721 165.58C83.6267 165.571 84.3734 166 84.8121 166.868C85.0267 166.476 85.3394 166.163 85.7501 165.93C86.1607 165.697 86.6274 165.58 87.1501 165.58C87.6354 165.58 88.0741 165.692 88.4661 165.916C88.8674 166.14 89.1801 166.481 89.4041 166.938C89.6374 167.386 89.7541 167.951 89.7541 168.632V172.678C89.7541 172.771 89.7214 172.851 89.6561 172.916C89.6001 172.972 89.5254 173 89.4321 173H88.7741C88.6807 173 88.6014 172.972 88.5361 172.916C88.4801 172.851 88.4521 172.771 88.4521 172.678V168.758C88.4521 168.235 88.3774 167.825 88.2281 167.526C88.0787 167.227 87.8781 167.017 87.6261 166.896C87.3741 166.775 87.0987 166.714 86.8001 166.714C86.5574 166.714 86.3101 166.775 86.0581 166.896C85.8061 167.017 85.5961 167.227 85.4281 167.526C85.2694 167.825 85.1901 168.235 85.1901 168.758V172.678C85.1901 172.771 85.1574 172.851 85.0921 172.916C85.0361 172.972 84.9614 173 84.8681 173H84.2101C84.1167 173 84.0374 172.972 83.9721 172.916C83.9161 172.851 83.8881 172.771 83.8881 172.678V168.758C83.8881 168.235 83.8087 167.825 83.6501 167.526C83.4914 167.227 83.2861 167.017 83.0341 166.896C82.7821 166.775 82.5161 166.714 82.2361 166.714C81.9934 166.714 81.7461 166.775 81.4941 166.896C81.2421 167.017 81.0321 167.227 80.8641 167.526C80.7054 167.825 80.6261 168.231 80.6261 168.744V172.678C80.6261 172.771 80.5934 172.851 80.5281 172.916C80.4721 172.972 80.3974 173 80.3041 173H79.6321ZM95.0695 173.14C94.5095 173.14 94.0428 173.042 93.6695 172.846C93.2961 172.641 92.9975 172.389 92.7735 172.09V172.678C92.7735 172.771 92.7408 172.851 92.6755 172.916C92.6195 172.972 92.5448 173 92.4515 173H91.8075C91.7141 173 91.6348 172.972 91.5695 172.916C91.5135 172.851 91.4855 172.771 91.4855 172.678V163.382C91.4855 163.289 91.5135 163.214 91.5695 163.158C91.6348 163.093 91.7141 163.06 91.8075 163.06H92.4795C92.5821 163.06 92.6615 163.093 92.7175 163.158C92.7735 163.214 92.8015 163.289 92.8015 163.382V166.602C93.0348 166.313 93.3335 166.07 93.6975 165.874C94.0708 165.678 94.5281 165.58 95.0695 165.58C95.5921 165.58 96.0355 165.673 96.3995 165.86C96.7728 166.037 97.0761 166.285 97.3095 166.602C97.5521 166.919 97.7341 167.279 97.8555 167.68C97.9768 168.081 98.0421 168.501 98.0515 168.94C98.0608 169.089 98.0655 169.229 98.0655 169.36C98.0655 169.491 98.0608 169.631 98.0515 169.78C98.0421 170.228 97.9768 170.653 97.8555 171.054C97.7341 171.455 97.5521 171.815 97.3095 172.132C97.0761 172.44 96.7728 172.687 96.3995 172.874C96.0355 173.051 95.5921 173.14 95.0695 173.14ZM94.7755 172.006C95.2608 172.006 95.6388 171.903 95.9095 171.698C96.1895 171.483 96.3901 171.208 96.5115 170.872C96.6328 170.527 96.7028 170.158 96.7215 169.766C96.7308 169.495 96.7308 169.225 96.7215 168.954C96.7028 168.562 96.6328 168.198 96.5115 167.862C96.3901 167.517 96.1895 167.241 95.9095 167.036C95.6388 166.821 95.2608 166.714 94.7755 166.714C94.3368 166.714 93.9728 166.817 93.6835 167.022C93.3941 167.227 93.1748 167.489 93.0255 167.806C92.8855 168.123 92.8108 168.445 92.8015 168.772C92.7921 168.921 92.7875 169.103 92.7875 169.318C92.7875 169.523 92.7921 169.701 92.8015 169.85C92.8201 170.195 92.8948 170.536 93.0255 170.872C93.1655 171.199 93.3755 171.469 93.6555 171.684C93.9448 171.899 94.3181 172.006 94.7755 172.006ZM101.548 173.14C101.081 173.14 100.656 173.047 100.274 172.86C99.891 172.673 99.583 172.421 99.3496 172.104C99.1163 171.787 98.9996 171.427 98.9996 171.026C98.9996 170.382 99.261 169.869 99.7836 169.486C100.306 169.103 100.988 168.851 101.828 168.73L103.914 168.436V168.03C103.914 167.582 103.783 167.232 103.522 166.98C103.27 166.728 102.854 166.602 102.276 166.602C101.856 166.602 101.515 166.686 101.254 166.854C101.002 167.022 100.824 167.237 100.722 167.498C100.666 167.638 100.568 167.708 100.428 167.708H99.7976C99.695 167.708 99.6156 167.68 99.5596 167.624C99.513 167.559 99.4896 167.484 99.4896 167.4C99.4896 167.26 99.541 167.087 99.6436 166.882C99.7556 166.677 99.9236 166.476 100.148 166.28C100.372 166.084 100.656 165.921 101.002 165.79C101.356 165.65 101.786 165.58 102.29 165.58C102.85 165.58 103.321 165.655 103.704 165.804C104.086 165.944 104.385 166.135 104.6 166.378C104.824 166.621 104.982 166.896 105.076 167.204C105.178 167.512 105.23 167.825 105.23 168.142V172.678C105.23 172.771 105.197 172.851 105.132 172.916C105.076 172.972 105.001 173 104.908 173H104.264C104.161 173 104.082 172.972 104.026 172.916C103.97 172.851 103.942 172.771 103.942 172.678V172.076C103.82 172.244 103.657 172.412 103.452 172.58C103.246 172.739 102.99 172.874 102.682 172.986C102.374 173.089 101.996 173.14 101.548 173.14ZM101.842 172.09C102.224 172.09 102.574 172.011 102.892 171.852C103.209 171.684 103.456 171.427 103.634 171.082C103.82 170.737 103.914 170.303 103.914 169.78V169.388L102.29 169.626C101.627 169.719 101.128 169.878 100.792 170.102C100.456 170.317 100.288 170.592 100.288 170.928C100.288 171.189 100.362 171.409 100.512 171.586C100.67 171.754 100.866 171.88 101.1 171.964C101.342 172.048 101.59 172.09 101.842 172.09ZM107.284 173C107.191 173 107.112 172.972 107.046 172.916C106.99 172.851 106.962 172.771 106.962 172.678V166.056C106.962 165.963 106.99 165.883 107.046 165.818C107.112 165.753 107.191 165.72 107.284 165.72H107.928C108.022 165.72 108.101 165.753 108.166 165.818C108.232 165.883 108.264 165.963 108.264 166.056V166.672C108.451 166.355 108.708 166.117 109.034 165.958C109.361 165.799 109.753 165.72 110.21 165.72H110.77C110.864 165.72 110.938 165.753 110.994 165.818C111.05 165.874 111.078 165.949 111.078 166.042V166.616C111.078 166.709 111.05 166.784 110.994 166.84C110.938 166.896 110.864 166.924 110.77 166.924H109.93C109.426 166.924 109.03 167.073 108.74 167.372C108.451 167.661 108.306 168.058 108.306 168.562V172.678C108.306 172.771 108.274 172.851 108.208 172.916C108.143 172.972 108.064 173 107.97 173H107.284ZM117.114 175.66C117.012 175.66 116.932 175.627 116.876 175.562C116.82 175.506 116.792 175.431 116.792 175.338V172.09C116.559 172.389 116.256 172.641 115.882 172.846C115.518 173.042 115.066 173.14 114.524 173.14C114.011 173.14 113.568 173.051 113.194 172.874C112.821 172.687 112.513 172.445 112.27 172.146C112.037 171.838 111.86 171.488 111.738 171.096C111.626 170.695 111.561 170.275 111.542 169.836C111.533 169.687 111.528 169.528 111.528 169.36C111.528 169.192 111.533 169.033 111.542 168.884C111.561 168.436 111.626 168.016 111.738 167.624C111.86 167.232 112.037 166.882 112.27 166.574C112.513 166.266 112.821 166.023 113.194 165.846C113.568 165.669 114.011 165.58 114.524 165.58C115.084 165.58 115.551 165.683 115.924 165.888C116.298 166.093 116.596 166.35 116.82 166.658V166.042C116.82 165.949 116.848 165.874 116.904 165.818C116.97 165.753 117.049 165.72 117.142 165.72H117.786C117.88 165.72 117.954 165.753 118.01 165.818C118.076 165.874 118.108 165.949 118.108 166.042V175.338C118.108 175.431 118.076 175.506 118.01 175.562C117.954 175.627 117.88 175.66 117.786 175.66H117.114ZM114.818 172.006C115.266 172.006 115.63 171.903 115.91 171.698C116.2 171.493 116.414 171.231 116.554 170.914C116.704 170.597 116.783 170.275 116.792 169.948C116.802 169.789 116.806 169.607 116.806 169.402C116.806 169.197 116.802 169.019 116.792 168.87C116.783 168.525 116.708 168.189 116.568 167.862C116.428 167.526 116.214 167.251 115.924 167.036C115.644 166.821 115.276 166.714 114.818 166.714C114.342 166.714 113.964 166.821 113.684 167.036C113.404 167.241 113.204 167.517 113.082 167.862C112.961 168.198 112.891 168.562 112.872 168.954C112.863 169.225 112.863 169.495 112.872 169.766C112.891 170.158 112.961 170.527 113.082 170.872C113.204 171.208 113.404 171.483 113.684 171.698C113.964 171.903 114.342 172.006 114.818 172.006ZM122.626 173.14C122.029 173.14 121.52 173.009 121.1 172.748C120.689 172.477 120.377 172.104 120.162 171.628C119.947 171.152 119.84 170.606 119.84 169.99V166.042C119.84 165.949 119.868 165.874 119.924 165.818C119.989 165.753 120.069 165.72 120.162 165.72H120.862C120.955 165.72 121.03 165.753 121.086 165.818C121.151 165.874 121.184 165.949 121.184 166.042V169.92C121.184 171.311 121.791 172.006 123.004 172.006C123.583 172.006 124.045 171.824 124.39 171.46C124.745 171.087 124.922 170.573 124.922 169.92V166.042C124.922 165.949 124.95 165.874 125.006 165.818C125.071 165.753 125.151 165.72 125.244 165.72H125.93C126.033 165.72 126.112 165.753 126.168 165.818C126.224 165.874 126.252 165.949 126.252 166.042V172.678C126.252 172.771 126.224 172.851 126.168 172.916C126.112 172.972 126.033 173 125.93 173H125.286C125.193 173 125.113 172.972 125.048 172.916C124.992 172.851 124.964 172.771 124.964 172.678V172.062C124.712 172.389 124.404 172.65 124.04 172.846C123.685 173.042 123.214 173.14 122.626 173.14ZM130.95 173.14C129.989 173.14 129.223 172.846 128.654 172.258C128.085 171.661 127.772 170.849 127.716 169.822C127.707 169.701 127.702 169.547 127.702 169.36C127.702 169.164 127.707 169.005 127.716 168.884C127.753 168.221 127.907 167.643 128.178 167.148C128.449 166.644 128.817 166.257 129.284 165.986C129.76 165.715 130.315 165.58 130.95 165.58C131.659 165.58 132.252 165.729 132.728 166.028C133.213 166.327 133.582 166.751 133.834 167.302C134.086 167.853 134.212 168.497 134.212 169.234V169.472C134.212 169.575 134.179 169.654 134.114 169.71C134.058 169.766 133.983 169.794 133.89 169.794H129.046C129.046 169.803 129.046 169.822 129.046 169.85C129.046 169.878 129.046 169.901 129.046 169.92C129.065 170.303 129.149 170.662 129.298 170.998C129.447 171.325 129.662 171.591 129.942 171.796C130.222 172.001 130.558 172.104 130.95 172.104C131.286 172.104 131.566 172.053 131.79 171.95C132.014 171.847 132.196 171.735 132.336 171.614C132.476 171.483 132.569 171.385 132.616 171.32C132.7 171.199 132.765 171.129 132.812 171.11C132.859 171.082 132.933 171.068 133.036 171.068H133.708C133.801 171.068 133.876 171.096 133.932 171.152C133.997 171.199 134.025 171.269 134.016 171.362C134.007 171.502 133.932 171.675 133.792 171.88C133.652 172.076 133.451 172.272 133.19 172.468C132.929 172.664 132.611 172.827 132.238 172.958C131.865 173.079 131.435 173.14 130.95 173.14ZM129.046 168.828H132.882V168.786C132.882 168.366 132.803 167.993 132.644 167.666C132.495 167.339 132.275 167.083 131.986 166.896C131.697 166.7 131.351 166.602 130.95 166.602C130.549 166.602 130.203 166.7 129.914 166.896C129.634 167.083 129.419 167.339 129.27 167.666C129.121 167.993 129.046 168.366 129.046 168.786V168.828ZM135.858 168.1C135.765 168.1 135.685 168.072 135.62 168.016C135.564 167.951 135.536 167.871 135.536 167.778V166.798C135.536 166.705 135.564 166.63 135.62 166.574C135.685 166.509 135.765 166.476 135.858 166.476H136.852C136.955 166.476 137.034 166.509 137.09 166.574C137.155 166.63 137.188 166.705 137.188 166.798V167.778C137.188 167.871 137.155 167.951 137.09 168.016C137.034 168.072 136.955 168.1 136.852 168.1H135.858ZM135.858 173C135.765 173 135.685 172.972 135.62 172.916C135.564 172.851 135.536 172.771 135.536 172.678V171.698C135.536 171.605 135.564 171.53 135.62 171.474C135.685 171.409 135.765 171.376 135.858 171.376H136.852C136.955 171.376 137.034 171.409 137.09 171.474C137.155 171.53 137.188 171.605 137.188 171.698V172.678C137.188 172.771 137.155 172.851 137.09 172.916C137.034 172.972 136.955 173 136.852 173H135.858ZM145.196 173.14C144.608 173.14 144.094 173.07 143.656 172.93C143.217 172.781 142.848 172.585 142.55 172.342C142.251 172.099 142.022 171.833 141.864 171.544C141.714 171.255 141.635 170.956 141.626 170.648C141.626 170.564 141.654 170.499 141.71 170.452C141.766 170.405 141.836 170.382 141.92 170.382H142.606C142.69 170.382 142.764 170.401 142.83 170.438C142.895 170.475 142.951 170.555 142.998 170.676C143.091 171.012 143.25 171.273 143.474 171.46C143.707 171.647 143.973 171.777 144.272 171.852C144.58 171.917 144.888 171.95 145.196 171.95C145.84 171.95 146.362 171.796 146.764 171.488C147.165 171.18 147.366 170.727 147.366 170.13C147.366 169.523 147.184 169.089 146.82 168.828C146.456 168.567 145.952 168.436 145.308 168.436H143.978C143.884 168.436 143.805 168.408 143.74 168.352C143.684 168.296 143.656 168.217 143.656 168.114V167.736C143.656 167.652 143.67 167.582 143.698 167.526C143.735 167.461 143.772 167.405 143.81 167.358L146.526 164.39H142.396C142.302 164.39 142.223 164.362 142.158 164.306C142.102 164.25 142.074 164.171 142.074 164.068V163.536C142.074 163.433 142.102 163.354 142.158 163.298C142.223 163.233 142.302 163.2 142.396 163.2H147.982C148.084 163.2 148.164 163.233 148.22 163.298C148.285 163.354 148.318 163.433 148.318 163.536V164.04C148.318 164.105 148.299 164.166 148.262 164.222C148.234 164.269 148.201 164.315 148.164 164.362L145.462 167.372L145.686 167.386C146.302 167.405 146.838 167.517 147.296 167.722C147.762 167.927 148.122 168.235 148.374 168.646C148.635 169.047 148.766 169.556 148.766 170.172C148.766 170.797 148.612 171.334 148.304 171.782C147.996 172.221 147.571 172.557 147.03 172.79C146.488 173.023 145.877 173.14 145.196 173.14Z" fill="black" fill-opacity="0.64"/>
<defs>
<clipPath id="clip0_1_929">
<rect width="160" height="160" fill="white"/>
</clipPath>
</defs>
</svg>
